<?xml version="1.0" encoding="UTF-8"?>
<svg xmlns="http://www.w3.org/2000/svg" xmlns:xlink="http://www.w3.org/1999/xlink" width="130px" height="15px" viewBox="0 0 129 15" version="1.1">
<defs>
<filter id="alpha" filterUnits="objectBoundingBox" x="0%" y="0%" width="100%" height="100%">
  <feColorMatrix type="matrix" in="SourceGraphic" values="0 0 0 0 1 0 0 0 0 1 0 0 0 0 1 0 0 0 1 0"/>
</filter>
<mask id="mask0">
  <g filter="url(#alpha)">
<rect x="0" y="0" width="129" height="15" style="fill:rgb(0%,0%,0%);fill-opacity:0.945098;stroke:none;"/>
  </g>
</mask>
<clipPath id="clip1">
  <rect x="0" y="0" width="129" height="15"/>
</clipPath>
<g id="surface5" clip-path="url(#clip1)">
<path style=" stroke:none;fill-rule:evenodd;fill:rgb(48.235294%,28.235294%,26.666667%);fill-opacity:1;" d="M 14.570312 -0.113281 C 14.796875 -0.113281 15.023438 -0.113281 15.25 -0.113281 C 19.855469 3.191406 24.5625 6.375 29.371094 9.433594 C 34.175781 6.375 38.882812 3.191406 43.488281 -0.113281 C 43.714844 -0.113281 43.941406 -0.113281 44.167969 -0.113281 C 48.730469 3.148438 53.359375 6.332031 58.0625 9.433594 C 62.761719 6.332031 67.394531 3.148438 71.957031 -0.113281 C 72.179688 -0.113281 72.40625 -0.113281 72.632812 -0.113281 C 77.171875 3.121094 81.765625 6.300781 86.414062 9.433594 C 91.152344 6.324219 95.824219 3.144531 100.421875 -0.113281 C 100.648438 -0.113281 100.871094 -0.113281 101.097656 -0.113281 C 105.558594 3.230469 110.152344 6.414062 114.878906 9.433594 C 118.539062 6.546875 122.226562 3.707031 125.949219 0.910156 C 126.207031 0.738281 126.433594 0.777344 126.628906 1.023438 C 127.308594 2.007812 128.0625 2.917969 128.886719 3.75 C 128.886719 3.976562 128.886719 4.203125 128.886719 4.433594 C 124.300781 7.835938 119.78125 11.320312 115.332031 14.886719 C 115.105469 14.886719 114.878906 14.886719 114.652344 14.886719 C 110.054688 11.628906 105.386719 8.445312 100.648438 5.339844 C 95.90625 8.445312 91.238281 11.628906 86.640625 14.886719 C 86.414062 14.886719 86.1875 14.886719 85.960938 14.886719 C 81.507812 11.582031 76.949219 8.398438 72.292969 5.339844 C 67.59375 8.441406 62.960938 11.625 58.398438 14.886719 C 58.175781 14.886719 57.949219 14.886719 57.722656 14.886719 C 53.160156 11.625 48.53125 8.441406 43.828125 5.339844 C 39.023438 8.398438 34.316406 11.582031 29.707031 14.886719 C 29.484375 14.886719 29.257812 14.886719 29.03125 14.886719 C 24.433594 11.628906 19.761719 8.445312 15.023438 5.339844 C 10.804688 8.296875 6.589844 11.25 2.371094 14.203125 C 1.59375 13.011719 0.765625 11.875 -0.113281 10.796875 C -0.113281 10.644531 -0.113281 10.492188 -0.113281 10.339844 C 4.832031 6.910156 9.726562 3.425781 14.570312 -0.113281 Z M 14.570312 -0.113281 "/>
</g>
</defs>
<g id="surface1">
<use xlink:href="#surface5" mask="url(#mask0)"/>
</g>
</svg>
