<?xml version="1.0" encoding="UTF-8"?>
<svg xmlns="http://www.w3.org/2000/svg" xmlns:xlink="http://www.w3.org/1999/xlink" width="50px" height="50px" viewBox="0 0 50 50" version="1.1">
<defs>
<filter id="alpha" filterUnits="objectBoundingBox" x="0%" y="0%" width="100%" height="100%">
  <feColorMatrix type="matrix" in="SourceGraphic" values="0 0 0 0 1 0 0 0 0 1 0 0 0 0 1 0 0 0 1 0"/>
</filter>
<mask id="mask0">
  <g filter="url(#alpha)">
<rect x="0" y="0" width="50" height="50" style="fill:rgb(0%,0%,0%);fill-opacity:0.996078;stroke:none;"/>
  </g>
</mask>
<clipPath id="clip1">
  <rect x="0" y="0" width="50" height="50"/>
</clipPath>
<g id="surface5" clip-path="url(#clip1)">
<path style=" stroke:none;fill-rule:evenodd;fill:rgb(72.54902%,61.568627%,49.803922%);fill-opacity:1;" d="M 27.554688 -0.0429688 C 28.652344 -0.0429688 29.75 -0.0429688 30.847656 -0.0429688 C 34.59375 0.324219 37.890625 1.734375 40.734375 4.195312 C 43.886719 7.15625 46.207031 10.679688 47.695312 14.761719 C 48.839844 17.804688 49.59375 20.929688 49.957031 24.136719 C 49.957031 25.808594 49.957031 27.480469 49.957031 29.152344 C 49.800781 32.402344 49.292969 35.613281 48.433594 38.773438 C 46.160156 46.375 41.039062 50.101562 33.074219 49.957031 C 32.496094 49.957031 31.917969 49.957031 31.34375 49.957031 C 27.042969 49.542969 22.8125 48.707031 18.65625 47.449219 C 14.328125 46.128906 10.457031 44.015625 7.042969 41.117188 C 2.773438 37.183594 0.410156 32.316406 -0.0429688 26.519531 C -0.0429688 25.890625 -0.0429688 25.261719 -0.0429688 24.628906 C 1.945312 13.53125 8.234375 6.003906 18.820312 2.054688 C 21.667969 1.035156 24.578125 0.335938 27.554688 -0.0429688 Z M 27.554688 -0.0429688 "/>
</g>
</defs>
<g id="surface1">
<use xlink:href="#surface5" mask="url(#mask0)"/>
</g>
</svg>
